# xmcd
#
# Track frame offsets:
#	150
#	11922
#	24732
#	37235
#	48428
#	67947
#	85361
#	101412
#	116265
#	131548
#	150712
#
# Disc length: 2199 seconds
#
# Revision: 1
# Processed by: cddbd v1.5.2PL0 Copyright (c) Steve Scherf et al.
# Submitted via: audiograbber 1.81.03
#
DISCID=8c08950b
DTITLE=The Russell`Leon Band - If Red Was Green
DYEAR=2006
DGENRE=Blues
TTITLE0=I Want Your Love
TTITLE1=Loopy
TTITLE2=Friday
TTITLE3=The`Beginning Of The End
TTITLE4=Cuba
TTITLE5=Eternity
TTITLE6=Troubadour
TTITLE7=Fade To Black
TTITLE8=The`Wild
TTITLE9=Scenester
TTITLE10=The`Ultimate Fate
EXTD=
EXTT0=
EXTT1=
EXTT2=
EXTT3=
EXTT4=
EXTT5=
EXTT6=
EXTT7=
EXTT8=
EXTT9=
EXTT10=
PLAYORDER=
